<svg xmlns="http://www.w3.org/2000/svg" width="640" height="400" viewBox="0 0 640 400">
	<defs>
		<linearGradient id="sky" x1="0" y1="0" x2="0" y2="1">
			<stop offset="0" stop-color="#93c5fd"/>
			<stop offset="1" stop-color="#fef3c7"/>
		</linearGradient>
		<linearGradient id="ground" x1="0" y1="0" x2="0" y2="1">
			<stop offset="0" stop-color="#86efac"/>
			<stop offset="1" stop-color="#4ade80"/>
		</linearGradient>
	</defs>
	<rect id="sky-rect" x="0" y="0" width="640" height="300" fill="url(#sky)"/>
	<circle id="sun" cx="520" cy="80" r="42" fill="#fbbf24" stroke="#f59e0b" stroke-width="4"/>
	<polygon id="mountain-far" points="60,300 240,110 420,300" fill="#64748b"/>
	<polygon id="mountain-near" points="260,300 430,140 600,300" fill="#475569"/>
	<polygon id="snow-cap" points="205,147 240,110 275,147 255,140 240,152 222,140" fill="#f8fafc"/>
	<rect id="ground-rect" x="0" y="300" width="640" height="100" fill="url(#ground)"/>
	<g id="tree">
		<rect x="112" y="270" width="16" height="60" rx="3" fill="#92400e"/>
		<circle cx="120" cy="248" r="34" fill="#16a34a"/>
		<circle cx="96" cy="266" r="22" fill="#15803d"/>
		<circle cx="146" cy="264" r="20" fill="#22c55e"/>
	</g>
	<g id="cloud-1" fill="#ffffff" opacity="0.9">
		<ellipse cx="150" cy="70" rx="46" ry="20"/>
		<ellipse cx="185" cy="58" rx="30" ry="16"/>
		<ellipse cx="120" cy="60" rx="26" ry="14"/>
	</g>
	<g id="cloud-2" fill="#ffffff" opacity="0.75">
		<ellipse cx="360" cy="50" rx="36" ry="14"/>
		<ellipse cx="388" cy="42" rx="22" ry="11"/>
	</g>
	<path id="river" d="M300 400 C 330 360, 290 340, 330 300 L 380 300 C 340 345, 390 360, 360 400 Z" fill="#60a5fa" opacity="0.85"/>
</svg>
